M48
; DRILL file {KiCad 5.99.0-1.20210830git897269f.fc34} date Wed Sep  1 17:59:58 2021
; FORMAT={-:-/ absolute / inch / decimal}
; #@! TF.CreationDate,2021-09-01T17:59:58+03:00
; #@! TF.GenerationSoftware,Kicad,Pcbnew,5.99.0-1.20210830git897269f.fc34
; #@! TF.FileFunction,NonPlated,1,2,NPTH
FMAT,2
INCH
; #@! TA.AperFunction,NonPlated,NPTH,ComponentDrill
T1C0.0689
; #@! TA.AperFunction,NonPlated,NPTH,ComponentDrill
T2C0.1063
; #@! TA.AperFunction,NonPlated,NPTH,ComponentDrill
T3C0.1181
; #@! TA.AperFunction,NonPlated,NPTH,ComponentDrill
T4C0.1575
%
G90
G05
T1
X3.3Y-2.62
X3.3Y-3.4
X3.3Y-4.18
X3.3Y-4.96
X3.7Y-2.62
X3.7Y-3.4
X3.7Y-4.18
X3.7Y-4.96
X4.08Y-2.62
X4.08Y-3.4
X4.08Y-4.18
X4.08Y-4.96
X4.48Y-2.62
X4.48Y-3.4
X4.48Y-4.18
X4.48Y-4.96
X4.86Y-2.62
X4.86Y-3.4
X4.86Y-4.18
X4.86Y-4.96
X5.26Y-2.62
X5.26Y-3.4
X5.26Y-4.18
X5.26Y-4.96
T2
X3.24Y-1.06
X3.24Y-2.08
X3.24Y-5.5
X5.32Y-1.06
X5.32Y-2.08
X5.32Y-5.5
T3
X3.4Y-2.82
X3.4Y-3.6
X3.4Y-4.38
X3.4Y-5.16
X3.65Y-2.72
X3.65Y-3.5
X3.65Y-4.28
X3.65Y-5.06
X4.18Y-2.82
X4.18Y-3.6
X4.18Y-4.38
X4.18Y-5.16
X4.43Y-2.72
X4.43Y-3.5
X4.43Y-4.28
X4.43Y-5.06
X4.96Y-2.82
X4.96Y-3.6
X4.96Y-4.38
X4.96Y-5.16
X5.21Y-2.72
X5.21Y-3.5
X5.21Y-4.28
X5.21Y-5.06
T4
X3.5Y-2.62
X3.5Y-3.4
X3.5Y-4.18
X3.5Y-4.96
X4.28Y-2.62
X4.28Y-3.4
X4.28Y-4.18
X4.28Y-4.96
X5.06Y-2.62
X5.06Y-3.4
X5.06Y-4.18
X5.06Y-4.96
T0
M30
