%TF.GenerationSoftware,KiCad,Pcbnew,5.99.0-1.20210824gita02ea16.fc34*%
%TF.CreationDate,2021-08-29T08:53:43+03:00*%
%TF.ProjectId,Macropad,4d616372-6f70-4616-942e-6b696361645f,rev?*%
%TF.SameCoordinates,Original*%
%TF.FileFunction,Legend,Top*%
%TF.FilePolarity,Positive*%
%FSLAX46Y46*%
G04 Gerber Fmt 4.6, Leading zero omitted, Abs format (unit mm)*
G04 Created by KiCad (PCBNEW 5.99.0-1.20210824gita02ea16.fc34) date 2021-08-29 08:53:43*
%MOMM*%
%LPD*%
G01*
G04 APERTURE LIST*
%ADD10C,0.300000*%
%ADD11C,0.150000*%
%ADD12C,0.120000*%
G04 APERTURE END LIST*
D10*
X125800571Y-53510571D02*
X125800571Y-52010571D01*
X125300571Y-53082000D01*
X124800571Y-52010571D01*
X124800571Y-53510571D01*
X123443428Y-53510571D02*
X123443428Y-52724857D01*
X123514857Y-52582000D01*
X123657714Y-52510571D01*
X123943428Y-52510571D01*
X124086285Y-52582000D01*
X123443428Y-53439142D02*
X123586285Y-53510571D01*
X123943428Y-53510571D01*
X124086285Y-53439142D01*
X124157714Y-53296285D01*
X124157714Y-53153428D01*
X124086285Y-53010571D01*
X123943428Y-52939142D01*
X123586285Y-52939142D01*
X123443428Y-52867714D01*
X122086285Y-53439142D02*
X122229142Y-53510571D01*
X122514857Y-53510571D01*
X122657714Y-53439142D01*
X122729142Y-53367714D01*
X122800571Y-53224857D01*
X122800571Y-52796285D01*
X122729142Y-52653428D01*
X122657714Y-52582000D01*
X122514857Y-52510571D01*
X122229142Y-52510571D01*
X122086285Y-52582000D01*
X121443428Y-53510571D02*
X121443428Y-52510571D01*
X121443428Y-52796285D02*
X121372000Y-52653428D01*
X121300571Y-52582000D01*
X121157714Y-52510571D01*
X121014857Y-52510571D01*
X120300571Y-53510571D02*
X120443428Y-53439142D01*
X120514857Y-53367714D01*
X120586285Y-53224857D01*
X120586285Y-52796285D01*
X120514857Y-52653428D01*
X120443428Y-52582000D01*
X120300571Y-52510571D01*
X120086285Y-52510571D01*
X119943428Y-52582000D01*
X119872000Y-52653428D01*
X119800571Y-52796285D01*
X119800571Y-53224857D01*
X119872000Y-53367714D01*
X119943428Y-53439142D01*
X120086285Y-53510571D01*
X120300571Y-53510571D01*
X119157714Y-52510571D02*
X119157714Y-54010571D01*
X119157714Y-52582000D02*
X119014857Y-52510571D01*
X118729142Y-52510571D01*
X118586285Y-52582000D01*
X118514857Y-52653428D01*
X118443428Y-52796285D01*
X118443428Y-53224857D01*
X118514857Y-53367714D01*
X118586285Y-53439142D01*
X118729142Y-53510571D01*
X119014857Y-53510571D01*
X119157714Y-53439142D01*
X117157714Y-53510571D02*
X117157714Y-52724857D01*
X117229142Y-52582000D01*
X117372000Y-52510571D01*
X117657714Y-52510571D01*
X117800571Y-52582000D01*
X117157714Y-53439142D02*
X117300571Y-53510571D01*
X117657714Y-53510571D01*
X117800571Y-53439142D01*
X117872000Y-53296285D01*
X117872000Y-53153428D01*
X117800571Y-53010571D01*
X117657714Y-52939142D01*
X117300571Y-52939142D01*
X117157714Y-52867714D01*
X115800571Y-53510571D02*
X115800571Y-52010571D01*
X115800571Y-53439142D02*
X115943428Y-53510571D01*
X116229142Y-53510571D01*
X116372000Y-53439142D01*
X116443428Y-53367714D01*
X116514857Y-53224857D01*
X116514857Y-52796285D01*
X116443428Y-52653428D01*
X116372000Y-52582000D01*
X116229142Y-52510571D01*
X115943428Y-52510571D01*
X115800571Y-52582000D01*
X114157714Y-52010571D02*
X113657714Y-53510571D01*
X113157714Y-52010571D01*
X111872000Y-53510571D02*
X112729142Y-53510571D01*
X112300571Y-53510571D02*
X112300571Y-52010571D01*
X112443428Y-52224857D01*
X112586285Y-52367714D01*
X112729142Y-52439142D01*
X83228571Y-31425428D02*
X81728571Y-31425428D01*
X82800000Y-31925428D01*
X81728571Y-32425428D01*
X83228571Y-32425428D01*
X83228571Y-33782571D02*
X82442857Y-33782571D01*
X82300000Y-33711142D01*
X82228571Y-33568285D01*
X82228571Y-33282571D01*
X82300000Y-33139714D01*
X83157142Y-33782571D02*
X83228571Y-33639714D01*
X83228571Y-33282571D01*
X83157142Y-33139714D01*
X83014285Y-33068285D01*
X82871428Y-33068285D01*
X82728571Y-33139714D01*
X82657142Y-33282571D01*
X82657142Y-33639714D01*
X82585714Y-33782571D01*
X83157142Y-35139714D02*
X83228571Y-34996857D01*
X83228571Y-34711142D01*
X83157142Y-34568285D01*
X83085714Y-34496857D01*
X82942857Y-34425428D01*
X82514285Y-34425428D01*
X82371428Y-34496857D01*
X82300000Y-34568285D01*
X82228571Y-34711142D01*
X82228571Y-34996857D01*
X82300000Y-35139714D01*
X83228571Y-35782571D02*
X82228571Y-35782571D01*
X82514285Y-35782571D02*
X82371428Y-35854000D01*
X82300000Y-35925428D01*
X82228571Y-36068285D01*
X82228571Y-36211142D01*
X83228571Y-36925428D02*
X83157142Y-36782571D01*
X83085714Y-36711142D01*
X82942857Y-36639714D01*
X82514285Y-36639714D01*
X82371428Y-36711142D01*
X82300000Y-36782571D01*
X82228571Y-36925428D01*
X82228571Y-37139714D01*
X82300000Y-37282571D01*
X82371428Y-37354000D01*
X82514285Y-37425428D01*
X82942857Y-37425428D01*
X83085714Y-37354000D01*
X83157142Y-37282571D01*
X83228571Y-37139714D01*
X83228571Y-36925428D01*
X82228571Y-38068285D02*
X83728571Y-38068285D01*
X82300000Y-38068285D02*
X82228571Y-38211142D01*
X82228571Y-38496857D01*
X82300000Y-38639714D01*
X82371428Y-38711142D01*
X82514285Y-38782571D01*
X82942857Y-38782571D01*
X83085714Y-38711142D01*
X83157142Y-38639714D01*
X83228571Y-38496857D01*
X83228571Y-38211142D01*
X83157142Y-38068285D01*
X83228571Y-40068285D02*
X82442857Y-40068285D01*
X82300000Y-39996857D01*
X82228571Y-39854000D01*
X82228571Y-39568285D01*
X82300000Y-39425428D01*
X83157142Y-40068285D02*
X83228571Y-39925428D01*
X83228571Y-39568285D01*
X83157142Y-39425428D01*
X83014285Y-39354000D01*
X82871428Y-39354000D01*
X82728571Y-39425428D01*
X82657142Y-39568285D01*
X82657142Y-39925428D01*
X82585714Y-40068285D01*
X83228571Y-41425428D02*
X81728571Y-41425428D01*
X83157142Y-41425428D02*
X83228571Y-41282571D01*
X83228571Y-40996857D01*
X83157142Y-40854000D01*
X83085714Y-40782571D01*
X82942857Y-40711142D01*
X82514285Y-40711142D01*
X82371428Y-40782571D01*
X82300000Y-40854000D01*
X82228571Y-40996857D01*
X82228571Y-41282571D01*
X82300000Y-41425428D01*
X81728571Y-43068285D02*
X83228571Y-43568285D01*
X81728571Y-44068285D01*
X83228571Y-45354000D02*
X83228571Y-44496857D01*
X83228571Y-44925428D02*
X81728571Y-44925428D01*
X81942857Y-44782571D01*
X82085714Y-44639714D01*
X82157142Y-44496857D01*
D11*
%TO.C,RLED1*%
X96012190Y-50914380D02*
X95678857Y-50438190D01*
X95440761Y-50914380D02*
X95440761Y-49914380D01*
X95821714Y-49914380D01*
X95916952Y-49962000D01*
X95964571Y-50009619D01*
X96012190Y-50104857D01*
X96012190Y-50247714D01*
X95964571Y-50342952D01*
X95916952Y-50390571D01*
X95821714Y-50438190D01*
X95440761Y-50438190D01*
X96916952Y-50914380D02*
X96440761Y-50914380D01*
X96440761Y-49914380D01*
X97250285Y-50390571D02*
X97583619Y-50390571D01*
X97726476Y-50914380D02*
X97250285Y-50914380D01*
X97250285Y-49914380D01*
X97726476Y-49914380D01*
X98155047Y-50914380D02*
X98155047Y-49914380D01*
X98393142Y-49914380D01*
X98536000Y-49962000D01*
X98631238Y-50057238D01*
X98678857Y-50152476D01*
X98726476Y-50342952D01*
X98726476Y-50485809D01*
X98678857Y-50676285D01*
X98631238Y-50771523D01*
X98536000Y-50866761D01*
X98393142Y-50914380D01*
X98155047Y-50914380D01*
X99678857Y-50914380D02*
X99107428Y-50914380D01*
X99393142Y-50914380D02*
X99393142Y-49914380D01*
X99297904Y-50057238D01*
X99202666Y-50152476D01*
X99107428Y-50200095D01*
%TO.C,MCU1*%
X107386666Y-39822380D02*
X107386666Y-38822380D01*
X107720000Y-39536666D01*
X108053333Y-38822380D01*
X108053333Y-39822380D01*
X109100952Y-39727142D02*
X109053333Y-39774761D01*
X108910476Y-39822380D01*
X108815238Y-39822380D01*
X108672380Y-39774761D01*
X108577142Y-39679523D01*
X108529523Y-39584285D01*
X108481904Y-39393809D01*
X108481904Y-39250952D01*
X108529523Y-39060476D01*
X108577142Y-38965238D01*
X108672380Y-38870000D01*
X108815238Y-38822380D01*
X108910476Y-38822380D01*
X109053333Y-38870000D01*
X109100952Y-38917619D01*
X109529523Y-38822380D02*
X109529523Y-39631904D01*
X109577142Y-39727142D01*
X109624761Y-39774761D01*
X109720000Y-39822380D01*
X109910476Y-39822380D01*
X110005714Y-39774761D01*
X110053333Y-39727142D01*
X110100952Y-39631904D01*
X110100952Y-38822380D01*
X111100952Y-39822380D02*
X110529523Y-39822380D01*
X110815238Y-39822380D02*
X110815238Y-38822380D01*
X110720000Y-38965238D01*
X110624761Y-39060476D01*
X110529523Y-39108095D01*
X89560476Y-30080000D02*
X89484285Y-30041904D01*
X89370000Y-30041904D01*
X89255714Y-30080000D01*
X89179523Y-30156190D01*
X89141428Y-30232380D01*
X89103333Y-30384761D01*
X89103333Y-30499047D01*
X89141428Y-30651428D01*
X89179523Y-30727619D01*
X89255714Y-30803809D01*
X89370000Y-30841904D01*
X89446190Y-30841904D01*
X89560476Y-30803809D01*
X89598571Y-30765714D01*
X89598571Y-30499047D01*
X89446190Y-30499047D01*
X89941428Y-30841904D02*
X89941428Y-30041904D01*
X90398571Y-30841904D01*
X90398571Y-30041904D01*
X90779523Y-30841904D02*
X90779523Y-30041904D01*
X90970000Y-30041904D01*
X91084285Y-30080000D01*
X91160476Y-30156190D01*
X91198571Y-30232380D01*
X91236666Y-30384761D01*
X91236666Y-30499047D01*
X91198571Y-30651428D01*
X91160476Y-30727619D01*
X91084285Y-30803809D01*
X90970000Y-30841904D01*
X90779523Y-30841904D01*
X99230000Y-30796666D02*
X99230000Y-30096666D01*
X99463333Y-30596666D01*
X99696666Y-30096666D01*
X99696666Y-30796666D01*
X100163333Y-30096666D02*
X100296666Y-30096666D01*
X100363333Y-30130000D01*
X100430000Y-30196666D01*
X100463333Y-30330000D01*
X100463333Y-30563333D01*
X100430000Y-30696666D01*
X100363333Y-30763333D01*
X100296666Y-30796666D01*
X100163333Y-30796666D01*
X100096666Y-30763333D01*
X100030000Y-30696666D01*
X99996666Y-30563333D01*
X99996666Y-30330000D01*
X100030000Y-30196666D01*
X100096666Y-30130000D01*
X100163333Y-30096666D01*
X100730000Y-30763333D02*
X100830000Y-30796666D01*
X100996666Y-30796666D01*
X101063333Y-30763333D01*
X101096666Y-30730000D01*
X101130000Y-30663333D01*
X101130000Y-30596666D01*
X101096666Y-30530000D01*
X101063333Y-30496666D01*
X100996666Y-30463333D01*
X100863333Y-30430000D01*
X100796666Y-30396666D01*
X100763333Y-30363333D01*
X100730000Y-30296666D01*
X100730000Y-30230000D01*
X100763333Y-30163333D01*
X100796666Y-30130000D01*
X100863333Y-30096666D01*
X101030000Y-30096666D01*
X101130000Y-30130000D01*
X101430000Y-30796666D02*
X101430000Y-30096666D01*
X115003333Y-46341466D02*
X114770000Y-46008133D01*
X114603333Y-46341466D02*
X114603333Y-45641466D01*
X114870000Y-45641466D01*
X114936666Y-45674800D01*
X114970000Y-45708133D01*
X115003333Y-45774800D01*
X115003333Y-45874800D01*
X114970000Y-45941466D01*
X114936666Y-45974800D01*
X114870000Y-46008133D01*
X114603333Y-46008133D01*
X115570000Y-46308133D02*
X115503333Y-46341466D01*
X115370000Y-46341466D01*
X115303333Y-46308133D01*
X115270000Y-46241466D01*
X115270000Y-45974800D01*
X115303333Y-45908133D01*
X115370000Y-45874800D01*
X115503333Y-45874800D01*
X115570000Y-45908133D01*
X115603333Y-45974800D01*
X115603333Y-46041466D01*
X115270000Y-46108133D01*
X116203333Y-45874800D02*
X116203333Y-46441466D01*
X116170000Y-46508133D01*
X116136666Y-46541466D01*
X116070000Y-46574800D01*
X115970000Y-46574800D01*
X115903333Y-46541466D01*
X116203333Y-46308133D02*
X116136666Y-46341466D01*
X116003333Y-46341466D01*
X115936666Y-46308133D01*
X115903333Y-46274800D01*
X115870000Y-46208133D01*
X115870000Y-46008133D01*
X115903333Y-45941466D01*
X115936666Y-45908133D01*
X116003333Y-45874800D01*
X116136666Y-45874800D01*
X116203333Y-45908133D01*
X116536666Y-46274800D02*
X116570000Y-46308133D01*
X116536666Y-46341466D01*
X116503333Y-46308133D01*
X116536666Y-46274800D01*
X116536666Y-46341466D01*
X117538571Y-30613333D02*
X117919523Y-30613333D01*
X117462380Y-30841904D02*
X117729047Y-30041904D01*
X117995714Y-30841904D01*
X118414761Y-30041904D02*
X118490952Y-30041904D01*
X118567142Y-30080000D01*
X118605238Y-30118095D01*
X118643333Y-30194285D01*
X118681428Y-30346666D01*
X118681428Y-30537142D01*
X118643333Y-30689523D01*
X118605238Y-30765714D01*
X118567142Y-30803809D01*
X118490952Y-30841904D01*
X118414761Y-30841904D01*
X118338571Y-30803809D01*
X118300476Y-30765714D01*
X118262380Y-30689523D01*
X118224285Y-30537142D01*
X118224285Y-30346666D01*
X118262380Y-30194285D01*
X118300476Y-30118095D01*
X118338571Y-30080000D01*
X118414761Y-30041904D01*
X109518571Y-46335904D02*
X109518571Y-45535904D01*
X109709047Y-45535904D01*
X109823333Y-45574000D01*
X109899523Y-45650190D01*
X109937619Y-45726380D01*
X109975714Y-45878761D01*
X109975714Y-45993047D01*
X109937619Y-46145428D01*
X109899523Y-46221619D01*
X109823333Y-46297809D01*
X109709047Y-46335904D01*
X109518571Y-46335904D01*
X110737619Y-46335904D02*
X110280476Y-46335904D01*
X110509047Y-46335904D02*
X110509047Y-45535904D01*
X110432857Y-45650190D01*
X110356666Y-45726380D01*
X110280476Y-45764476D01*
X111004285Y-45535904D02*
X111499523Y-45535904D01*
X111232857Y-45840666D01*
X111347142Y-45840666D01*
X111423333Y-45878761D01*
X111461428Y-45916857D01*
X111499523Y-45993047D01*
X111499523Y-46183523D01*
X111461428Y-46259714D01*
X111423333Y-46297809D01*
X111347142Y-46335904D01*
X111118571Y-46335904D01*
X111042380Y-46297809D01*
X111004285Y-46259714D01*
X101898571Y-46335904D02*
X101898571Y-45535904D01*
X102089047Y-45535904D01*
X102203333Y-45574000D01*
X102279523Y-45650190D01*
X102317619Y-45726380D01*
X102355714Y-45878761D01*
X102355714Y-45993047D01*
X102317619Y-46145428D01*
X102279523Y-46221619D01*
X102203333Y-46297809D01*
X102089047Y-46335904D01*
X101898571Y-46335904D01*
X103117619Y-46335904D02*
X102660476Y-46335904D01*
X102889047Y-46335904D02*
X102889047Y-45535904D01*
X102812857Y-45650190D01*
X102736666Y-45726380D01*
X102660476Y-45764476D01*
X103612857Y-45535904D02*
X103689047Y-45535904D01*
X103765238Y-45574000D01*
X103803333Y-45612095D01*
X103841428Y-45688285D01*
X103879523Y-45840666D01*
X103879523Y-46031142D01*
X103841428Y-46183523D01*
X103803333Y-46259714D01*
X103765238Y-46297809D01*
X103689047Y-46335904D01*
X103612857Y-46335904D01*
X103536666Y-46297809D01*
X103498571Y-46259714D01*
X103460476Y-46183523D01*
X103422380Y-46031142D01*
X103422380Y-45840666D01*
X103460476Y-45688285D01*
X103498571Y-45612095D01*
X103536666Y-45574000D01*
X103612857Y-45535904D01*
X109918571Y-30613333D02*
X110299523Y-30613333D01*
X109842380Y-30841904D02*
X110109047Y-30041904D01*
X110375714Y-30841904D01*
X110566190Y-30041904D02*
X111061428Y-30041904D01*
X110794761Y-30346666D01*
X110909047Y-30346666D01*
X110985238Y-30384761D01*
X111023333Y-30422857D01*
X111061428Y-30499047D01*
X111061428Y-30689523D01*
X111023333Y-30765714D01*
X110985238Y-30803809D01*
X110909047Y-30841904D01*
X110680476Y-30841904D01*
X110604285Y-30803809D01*
X110566190Y-30765714D01*
X115103333Y-44958800D02*
X115336666Y-44958800D01*
X115436666Y-45325466D02*
X115103333Y-45325466D01*
X115103333Y-44625466D01*
X115436666Y-44625466D01*
X115736666Y-44858800D02*
X115736666Y-45325466D01*
X115736666Y-44925466D02*
X115770000Y-44892133D01*
X115836666Y-44858800D01*
X115936666Y-44858800D01*
X116003333Y-44892133D01*
X116036666Y-44958800D01*
X116036666Y-45325466D01*
X92100476Y-30041904D02*
X92557619Y-30041904D01*
X92329047Y-30841904D02*
X92329047Y-30041904D01*
X92748095Y-30041904D02*
X93281428Y-30841904D01*
X93281428Y-30041904D02*
X92748095Y-30841904D01*
X111746666Y-45641466D02*
X111980000Y-46341466D01*
X112213333Y-45641466D01*
X112680000Y-45974800D02*
X112780000Y-46008133D01*
X112813333Y-46041466D01*
X112846666Y-46108133D01*
X112846666Y-46208133D01*
X112813333Y-46274800D01*
X112780000Y-46308133D01*
X112713333Y-46341466D01*
X112446666Y-46341466D01*
X112446666Y-45641466D01*
X112680000Y-45641466D01*
X112746666Y-45674800D01*
X112780000Y-45708133D01*
X112813333Y-45774800D01*
X112813333Y-45841466D01*
X112780000Y-45908133D01*
X112746666Y-45941466D01*
X112680000Y-45974800D01*
X112446666Y-45974800D01*
X113146666Y-45641466D02*
X113146666Y-46208133D01*
X113180000Y-46274800D01*
X113213333Y-46308133D01*
X113280000Y-46341466D01*
X113413333Y-46341466D01*
X113480000Y-46308133D01*
X113513333Y-46274800D01*
X113546666Y-46208133D01*
X113546666Y-45641466D01*
X113846666Y-46308133D02*
X113946666Y-46341466D01*
X114113333Y-46341466D01*
X114180000Y-46308133D01*
X114213333Y-46274800D01*
X114246666Y-46208133D01*
X114246666Y-46141466D01*
X114213333Y-46074800D01*
X114180000Y-46041466D01*
X114113333Y-46008133D01*
X113980000Y-45974800D01*
X113913333Y-45941466D01*
X113880000Y-45908133D01*
X113846666Y-45841466D01*
X113846666Y-45774800D01*
X113880000Y-45708133D01*
X113913333Y-45674800D01*
X113980000Y-45641466D01*
X114146666Y-45641466D01*
X114246666Y-45674800D01*
X112458571Y-30613333D02*
X112839523Y-30613333D01*
X112382380Y-30841904D02*
X112649047Y-30041904D01*
X112915714Y-30841904D01*
X113144285Y-30118095D02*
X113182380Y-30080000D01*
X113258571Y-30041904D01*
X113449047Y-30041904D01*
X113525238Y-30080000D01*
X113563333Y-30118095D01*
X113601428Y-30194285D01*
X113601428Y-30270476D01*
X113563333Y-30384761D01*
X113106190Y-30841904D01*
X113601428Y-30841904D01*
X124739523Y-30041904D02*
X125234761Y-30041904D01*
X124968095Y-30346666D01*
X125082380Y-30346666D01*
X125158571Y-30384761D01*
X125196666Y-30422857D01*
X125234761Y-30499047D01*
X125234761Y-30689523D01*
X125196666Y-30765714D01*
X125158571Y-30803809D01*
X125082380Y-30841904D01*
X124853809Y-30841904D01*
X124777619Y-30803809D01*
X124739523Y-30765714D01*
X125463333Y-30041904D02*
X125730000Y-30841904D01*
X125996666Y-30041904D01*
X126187142Y-30041904D02*
X126682380Y-30041904D01*
X126415714Y-30346666D01*
X126530000Y-30346666D01*
X126606190Y-30384761D01*
X126644285Y-30422857D01*
X126682380Y-30499047D01*
X126682380Y-30689523D01*
X126644285Y-30765714D01*
X126606190Y-30803809D01*
X126530000Y-30841904D01*
X126301428Y-30841904D01*
X126225238Y-30803809D01*
X126187142Y-30765714D01*
X99739523Y-46335904D02*
X99739523Y-45535904D01*
X99930000Y-45535904D01*
X100044285Y-45574000D01*
X100120476Y-45650190D01*
X100158571Y-45726380D01*
X100196666Y-45878761D01*
X100196666Y-45993047D01*
X100158571Y-46145428D01*
X100120476Y-46221619D01*
X100044285Y-46297809D01*
X99930000Y-46335904D01*
X99739523Y-46335904D01*
X100577619Y-46335904D02*
X100730000Y-46335904D01*
X100806190Y-46297809D01*
X100844285Y-46259714D01*
X100920476Y-46145428D01*
X100958571Y-45993047D01*
X100958571Y-45688285D01*
X100920476Y-45612095D01*
X100882380Y-45574000D01*
X100806190Y-45535904D01*
X100653809Y-45535904D01*
X100577619Y-45574000D01*
X100539523Y-45612095D01*
X100501428Y-45688285D01*
X100501428Y-45878761D01*
X100539523Y-45954952D01*
X100577619Y-45993047D01*
X100653809Y-46031142D01*
X100806190Y-46031142D01*
X100882380Y-45993047D01*
X100920476Y-45954952D01*
X100958571Y-45878761D01*
X89198571Y-46297809D02*
X89312857Y-46335904D01*
X89503333Y-46335904D01*
X89579523Y-46297809D01*
X89617619Y-46259714D01*
X89655714Y-46183523D01*
X89655714Y-46107333D01*
X89617619Y-46031142D01*
X89579523Y-45993047D01*
X89503333Y-45954952D01*
X89350952Y-45916857D01*
X89274761Y-45878761D01*
X89236666Y-45840666D01*
X89198571Y-45764476D01*
X89198571Y-45688285D01*
X89236666Y-45612095D01*
X89274761Y-45574000D01*
X89350952Y-45535904D01*
X89541428Y-45535904D01*
X89655714Y-45574000D01*
X89998571Y-46335904D02*
X89998571Y-45535904D01*
X90189047Y-45535904D01*
X90303333Y-45574000D01*
X90379523Y-45650190D01*
X90417619Y-45726380D01*
X90455714Y-45878761D01*
X90455714Y-45993047D01*
X90417619Y-46145428D01*
X90379523Y-46221619D01*
X90303333Y-46297809D01*
X90189047Y-46335904D01*
X89998571Y-46335904D01*
X90760476Y-46107333D02*
X91141428Y-46107333D01*
X90684285Y-46335904D02*
X90950952Y-45535904D01*
X91217619Y-46335904D01*
X127831904Y-30841904D02*
X127565238Y-30460952D01*
X127374761Y-30841904D02*
X127374761Y-30041904D01*
X127679523Y-30041904D01*
X127755714Y-30080000D01*
X127793809Y-30118095D01*
X127831904Y-30194285D01*
X127831904Y-30308571D01*
X127793809Y-30384761D01*
X127755714Y-30422857D01*
X127679523Y-30460952D01*
X127374761Y-30460952D01*
X128136666Y-30803809D02*
X128250952Y-30841904D01*
X128441428Y-30841904D01*
X128517619Y-30803809D01*
X128555714Y-30765714D01*
X128593809Y-30689523D01*
X128593809Y-30613333D01*
X128555714Y-30537142D01*
X128517619Y-30499047D01*
X128441428Y-30460952D01*
X128289047Y-30422857D01*
X128212857Y-30384761D01*
X128174761Y-30346666D01*
X128136666Y-30270476D01*
X128136666Y-30194285D01*
X128174761Y-30118095D01*
X128212857Y-30080000D01*
X128289047Y-30041904D01*
X128479523Y-30041904D01*
X128593809Y-30080000D01*
X128822380Y-30041904D02*
X129279523Y-30041904D01*
X129050952Y-30841904D02*
X129050952Y-30041904D01*
X120040476Y-30080000D02*
X119964285Y-30041904D01*
X119850000Y-30041904D01*
X119735714Y-30080000D01*
X119659523Y-30156190D01*
X119621428Y-30232380D01*
X119583333Y-30384761D01*
X119583333Y-30499047D01*
X119621428Y-30651428D01*
X119659523Y-30727619D01*
X119735714Y-30803809D01*
X119850000Y-30841904D01*
X119926190Y-30841904D01*
X120040476Y-30803809D01*
X120078571Y-30765714D01*
X120078571Y-30499047D01*
X119926190Y-30499047D01*
X120421428Y-30841904D02*
X120421428Y-30041904D01*
X120878571Y-30841904D01*
X120878571Y-30041904D01*
X121259523Y-30841904D02*
X121259523Y-30041904D01*
X121450000Y-30041904D01*
X121564285Y-30080000D01*
X121640476Y-30156190D01*
X121678571Y-30232380D01*
X121716666Y-30384761D01*
X121716666Y-30499047D01*
X121678571Y-30651428D01*
X121640476Y-30727619D01*
X121564285Y-30803809D01*
X121450000Y-30841904D01*
X121259523Y-30841904D01*
X101686666Y-30712533D02*
X101786666Y-30745866D01*
X101953333Y-30745866D01*
X102020000Y-30712533D01*
X102053333Y-30679200D01*
X102086666Y-30612533D01*
X102086666Y-30545866D01*
X102053333Y-30479200D01*
X102020000Y-30445866D01*
X101953333Y-30412533D01*
X101820000Y-30379200D01*
X101753333Y-30345866D01*
X101720000Y-30312533D01*
X101686666Y-30245866D01*
X101686666Y-30179200D01*
X101720000Y-30112533D01*
X101753333Y-30079200D01*
X101820000Y-30045866D01*
X101986666Y-30045866D01*
X102086666Y-30079200D01*
X102786666Y-30679200D02*
X102753333Y-30712533D01*
X102653333Y-30745866D01*
X102586666Y-30745866D01*
X102486666Y-30712533D01*
X102420000Y-30645866D01*
X102386666Y-30579200D01*
X102353333Y-30445866D01*
X102353333Y-30345866D01*
X102386666Y-30212533D01*
X102420000Y-30145866D01*
X102486666Y-30079200D01*
X102586666Y-30045866D01*
X102653333Y-30045866D01*
X102753333Y-30079200D01*
X102786666Y-30112533D01*
X103420000Y-30745866D02*
X103086666Y-30745866D01*
X103086666Y-30045866D01*
X103653333Y-30745866D02*
X103653333Y-30045866D01*
X104053333Y-30745866D02*
X103753333Y-30345866D01*
X104053333Y-30045866D02*
X103653333Y-30445866D01*
X91757619Y-46297809D02*
X91871904Y-46335904D01*
X92062380Y-46335904D01*
X92138571Y-46297809D01*
X92176666Y-46259714D01*
X92214761Y-46183523D01*
X92214761Y-46107333D01*
X92176666Y-46031142D01*
X92138571Y-45993047D01*
X92062380Y-45954952D01*
X91910000Y-45916857D01*
X91833809Y-45878761D01*
X91795714Y-45840666D01*
X91757619Y-45764476D01*
X91757619Y-45688285D01*
X91795714Y-45612095D01*
X91833809Y-45574000D01*
X91910000Y-45535904D01*
X92100476Y-45535904D01*
X92214761Y-45574000D01*
X93014761Y-46259714D02*
X92976666Y-46297809D01*
X92862380Y-46335904D01*
X92786190Y-46335904D01*
X92671904Y-46297809D01*
X92595714Y-46221619D01*
X92557619Y-46145428D01*
X92519523Y-45993047D01*
X92519523Y-45878761D01*
X92557619Y-45726380D01*
X92595714Y-45650190D01*
X92671904Y-45574000D01*
X92786190Y-45535904D01*
X92862380Y-45535904D01*
X92976666Y-45574000D01*
X93014761Y-45612095D01*
X93738571Y-46335904D02*
X93357619Y-46335904D01*
X93357619Y-45535904D01*
X96690000Y-30796666D02*
X96690000Y-30096666D01*
X96923333Y-30596666D01*
X97156666Y-30096666D01*
X97156666Y-30796666D01*
X97490000Y-30796666D02*
X97490000Y-30096666D01*
X97790000Y-30763333D02*
X97890000Y-30796666D01*
X98056666Y-30796666D01*
X98123333Y-30763333D01*
X98156666Y-30730000D01*
X98190000Y-30663333D01*
X98190000Y-30596666D01*
X98156666Y-30530000D01*
X98123333Y-30496666D01*
X98056666Y-30463333D01*
X97923333Y-30430000D01*
X97856666Y-30396666D01*
X97823333Y-30363333D01*
X97790000Y-30296666D01*
X97790000Y-30230000D01*
X97823333Y-30163333D01*
X97856666Y-30130000D01*
X97923333Y-30096666D01*
X98090000Y-30096666D01*
X98190000Y-30130000D01*
X98623333Y-30096666D02*
X98756666Y-30096666D01*
X98823333Y-30130000D01*
X98890000Y-30196666D01*
X98923333Y-30330000D01*
X98923333Y-30563333D01*
X98890000Y-30696666D01*
X98823333Y-30763333D01*
X98756666Y-30796666D01*
X98623333Y-30796666D01*
X98556666Y-30763333D01*
X98490000Y-30696666D01*
X98456666Y-30563333D01*
X98456666Y-30330000D01*
X98490000Y-30196666D01*
X98556666Y-30130000D01*
X98623333Y-30096666D01*
X107378571Y-30613333D02*
X107759523Y-30613333D01*
X107302380Y-30841904D02*
X107569047Y-30041904D01*
X107835714Y-30841904D01*
X108445238Y-30308571D02*
X108445238Y-30841904D01*
X108254761Y-30003809D02*
X108064285Y-30575238D01*
X108559523Y-30575238D01*
X122056666Y-30545866D02*
X122390000Y-30545866D01*
X121990000Y-30745866D02*
X122223333Y-30045866D01*
X122456666Y-30745866D01*
X123090000Y-30745866D02*
X122856666Y-30412533D01*
X122690000Y-30745866D02*
X122690000Y-30045866D01*
X122956666Y-30045866D01*
X123023333Y-30079200D01*
X123056666Y-30112533D01*
X123090000Y-30179200D01*
X123090000Y-30279200D01*
X123056666Y-30345866D01*
X123023333Y-30379200D01*
X122956666Y-30412533D01*
X122690000Y-30412533D01*
X123390000Y-30379200D02*
X123623333Y-30379200D01*
X123723333Y-30745866D02*
X123390000Y-30745866D01*
X123390000Y-30045866D01*
X123723333Y-30045866D01*
X124256666Y-30379200D02*
X124023333Y-30379200D01*
X124023333Y-30745866D02*
X124023333Y-30045866D01*
X124356666Y-30045866D01*
X114998571Y-30613333D02*
X115379523Y-30613333D01*
X114922380Y-30841904D02*
X115189047Y-30041904D01*
X115455714Y-30841904D01*
X116141428Y-30841904D02*
X115684285Y-30841904D01*
X115912857Y-30841904D02*
X115912857Y-30041904D01*
X115836666Y-30156190D01*
X115760476Y-30232380D01*
X115684285Y-30270476D01*
X97199523Y-46335904D02*
X97199523Y-45535904D01*
X97390000Y-45535904D01*
X97504285Y-45574000D01*
X97580476Y-45650190D01*
X97618571Y-45726380D01*
X97656666Y-45878761D01*
X97656666Y-45993047D01*
X97618571Y-46145428D01*
X97580476Y-46221619D01*
X97504285Y-46297809D01*
X97390000Y-46335904D01*
X97199523Y-46335904D01*
X98342380Y-45535904D02*
X98190000Y-45535904D01*
X98113809Y-45574000D01*
X98075714Y-45612095D01*
X97999523Y-45726380D01*
X97961428Y-45878761D01*
X97961428Y-46183523D01*
X97999523Y-46259714D01*
X98037619Y-46297809D01*
X98113809Y-46335904D01*
X98266190Y-46335904D01*
X98342380Y-46297809D01*
X98380476Y-46259714D01*
X98418571Y-46183523D01*
X98418571Y-45993047D01*
X98380476Y-45916857D01*
X98342380Y-45878761D01*
X98266190Y-45840666D01*
X98113809Y-45840666D01*
X98037619Y-45878761D01*
X97999523Y-45916857D01*
X97961428Y-45993047D01*
X94659523Y-46335904D02*
X94659523Y-45535904D01*
X94850000Y-45535904D01*
X94964285Y-45574000D01*
X95040476Y-45650190D01*
X95078571Y-45726380D01*
X95116666Y-45878761D01*
X95116666Y-45993047D01*
X95078571Y-46145428D01*
X95040476Y-46221619D01*
X94964285Y-46297809D01*
X94850000Y-46335904D01*
X94659523Y-46335904D01*
X95840476Y-45535904D02*
X95459523Y-45535904D01*
X95421428Y-45916857D01*
X95459523Y-45878761D01*
X95535714Y-45840666D01*
X95726190Y-45840666D01*
X95802380Y-45878761D01*
X95840476Y-45916857D01*
X95878571Y-45993047D01*
X95878571Y-46183523D01*
X95840476Y-46259714D01*
X95802380Y-46297809D01*
X95726190Y-46335904D01*
X95535714Y-46335904D01*
X95459523Y-46297809D01*
X95421428Y-46259714D01*
X107029371Y-46335904D02*
X107029371Y-45535904D01*
X107219847Y-45535904D01*
X107334133Y-45574000D01*
X107410323Y-45650190D01*
X107448419Y-45726380D01*
X107486514Y-45878761D01*
X107486514Y-45993047D01*
X107448419Y-46145428D01*
X107410323Y-46221619D01*
X107334133Y-46297809D01*
X107219847Y-46335904D01*
X107029371Y-46335904D01*
X108248419Y-46335904D02*
X107791276Y-46335904D01*
X108019847Y-46335904D02*
X108019847Y-45535904D01*
X107943657Y-45650190D01*
X107867466Y-45726380D01*
X107791276Y-45764476D01*
X108553180Y-45612095D02*
X108591276Y-45574000D01*
X108667466Y-45535904D01*
X108857942Y-45535904D01*
X108934133Y-45574000D01*
X108972228Y-45612095D01*
X109010323Y-45688285D01*
X109010323Y-45764476D01*
X108972228Y-45878761D01*
X108515085Y-46335904D01*
X109010323Y-46335904D01*
X104838571Y-30613333D02*
X105219523Y-30613333D01*
X104762380Y-30841904D02*
X105029047Y-30041904D01*
X105295714Y-30841904D01*
X105943333Y-30041904D02*
X105562380Y-30041904D01*
X105524285Y-30422857D01*
X105562380Y-30384761D01*
X105638571Y-30346666D01*
X105829047Y-30346666D01*
X105905238Y-30384761D01*
X105943333Y-30422857D01*
X105981428Y-30499047D01*
X105981428Y-30689523D01*
X105943333Y-30765714D01*
X105905238Y-30803809D01*
X105829047Y-30841904D01*
X105638571Y-30841904D01*
X105562380Y-30803809D01*
X105524285Y-30765714D01*
X116960000Y-45641466D02*
X117193333Y-46341466D01*
X117426666Y-45641466D01*
X117893333Y-45974800D02*
X117993333Y-46008133D01*
X118026666Y-46041466D01*
X118060000Y-46108133D01*
X118060000Y-46208133D01*
X118026666Y-46274800D01*
X117993333Y-46308133D01*
X117926666Y-46341466D01*
X117660000Y-46341466D01*
X117660000Y-45641466D01*
X117893333Y-45641466D01*
X117960000Y-45674800D01*
X117993333Y-45708133D01*
X118026666Y-45774800D01*
X118026666Y-45841466D01*
X117993333Y-45908133D01*
X117960000Y-45941466D01*
X117893333Y-45974800D01*
X117660000Y-45974800D01*
X118326666Y-46141466D02*
X118660000Y-46141466D01*
X118260000Y-46341466D02*
X118493333Y-45641466D01*
X118726666Y-46341466D01*
X118860000Y-45641466D02*
X119260000Y-45641466D01*
X119060000Y-46341466D02*
X119060000Y-45641466D01*
X95065866Y-30841904D02*
X94799200Y-30460952D01*
X94608723Y-30841904D02*
X94608723Y-30041904D01*
X94913485Y-30041904D01*
X94989676Y-30080000D01*
X95027771Y-30118095D01*
X95065866Y-30194285D01*
X95065866Y-30308571D01*
X95027771Y-30384761D01*
X94989676Y-30422857D01*
X94913485Y-30460952D01*
X94608723Y-30460952D01*
X95332533Y-30041904D02*
X95865866Y-30841904D01*
X95865866Y-30041904D02*
X95332533Y-30841904D01*
X104438571Y-46335904D02*
X104438571Y-45535904D01*
X104629047Y-45535904D01*
X104743333Y-45574000D01*
X104819523Y-45650190D01*
X104857619Y-45726380D01*
X104895714Y-45878761D01*
X104895714Y-45993047D01*
X104857619Y-46145428D01*
X104819523Y-46221619D01*
X104743333Y-46297809D01*
X104629047Y-46335904D01*
X104438571Y-46335904D01*
X105657619Y-46335904D02*
X105200476Y-46335904D01*
X105429047Y-46335904D02*
X105429047Y-45535904D01*
X105352857Y-45650190D01*
X105276666Y-45726380D01*
X105200476Y-45764476D01*
X106419523Y-46335904D02*
X105962380Y-46335904D01*
X106190952Y-46335904D02*
X106190952Y-45535904D01*
X106114761Y-45650190D01*
X106038571Y-45726380D01*
X105962380Y-45764476D01*
D12*
%TO.C,RLED1*%
X100806000Y-51462000D02*
X94266000Y-51462000D01*
X93496000Y-52832000D02*
X94266000Y-52832000D01*
X94266000Y-54202000D02*
X100806000Y-54202000D01*
X101576000Y-52832000D02*
X100806000Y-52832000D01*
X94266000Y-51462000D02*
X94266000Y-54202000D01*
X100806000Y-54202000D02*
X100806000Y-51462000D01*
%TO.C,SW1*%
X81800000Y-73648000D02*
X96000000Y-73648000D01*
X96000000Y-59448000D02*
X81800000Y-59448000D01*
X96000000Y-73648000D02*
X96000000Y-59448000D01*
X81800000Y-59448000D02*
X81800000Y-73648000D01*
%TO.C,SW2*%
X115812000Y-59448000D02*
X101612000Y-59448000D01*
X101612000Y-73648000D02*
X115812000Y-73648000D01*
X115812000Y-73648000D02*
X115812000Y-59448000D01*
X101612000Y-59448000D02*
X101612000Y-73648000D01*
%TO.C,SW3*%
X121424000Y-73648000D02*
X135624000Y-73648000D01*
X121424000Y-59448000D02*
X121424000Y-73648000D01*
X135624000Y-73648000D02*
X135624000Y-59448000D01*
X135624000Y-59448000D02*
X121424000Y-59448000D01*
%TO.C,SW4*%
X96000000Y-79260000D02*
X81800000Y-79260000D01*
X81800000Y-93460000D02*
X96000000Y-93460000D01*
X81800000Y-79260000D02*
X81800000Y-93460000D01*
X96000000Y-93460000D02*
X96000000Y-79260000D01*
%TO.C,SW5*%
X115812000Y-79260000D02*
X101612000Y-79260000D01*
X115812000Y-93460000D02*
X115812000Y-79260000D01*
X101612000Y-93460000D02*
X115812000Y-93460000D01*
X101612000Y-79260000D02*
X101612000Y-93460000D01*
%TO.C,SW6*%
X135624000Y-93460000D02*
X135624000Y-79260000D01*
X121424000Y-79260000D02*
X121424000Y-93460000D01*
X135624000Y-79260000D02*
X121424000Y-79260000D01*
X121424000Y-93460000D02*
X135624000Y-93460000D01*
%TO.C,SW7*%
X96000000Y-99072000D02*
X81800000Y-99072000D01*
X96000000Y-113272000D02*
X96000000Y-99072000D01*
X81800000Y-99072000D02*
X81800000Y-113272000D01*
X81800000Y-113272000D02*
X96000000Y-113272000D01*
%TO.C,SW8*%
X115812000Y-113272000D02*
X115812000Y-99072000D01*
X115812000Y-99072000D02*
X101612000Y-99072000D01*
X101612000Y-113272000D02*
X115812000Y-113272000D01*
X101612000Y-99072000D02*
X101612000Y-113272000D01*
%TO.C,SW9*%
X121424000Y-99072000D02*
X121424000Y-113272000D01*
X121424000Y-113272000D02*
X135624000Y-113272000D01*
X135624000Y-99072000D02*
X121424000Y-99072000D01*
X135624000Y-113272000D02*
X135624000Y-99072000D01*
%TO.C,SW10*%
X81800000Y-133084000D02*
X96000000Y-133084000D01*
X96000000Y-133084000D02*
X96000000Y-118884000D01*
X96000000Y-118884000D02*
X81800000Y-118884000D01*
X81800000Y-118884000D02*
X81800000Y-133084000D01*
%TO.C,SW11*%
X101612000Y-133084000D02*
X115812000Y-133084000D01*
X115812000Y-118884000D02*
X101612000Y-118884000D01*
X115812000Y-133084000D02*
X115812000Y-118884000D01*
X101612000Y-118884000D02*
X101612000Y-133084000D01*
%TO.C,SW12*%
X135624000Y-133084000D02*
X135624000Y-118884000D01*
X121424000Y-118884000D02*
X121424000Y-133084000D01*
X121424000Y-133084000D02*
X135624000Y-133084000D01*
X135624000Y-118884000D02*
X121424000Y-118884000D01*
%TD*%
M02*
