M48
; DRILL file {KiCad 5.99.0-1.20210824gita02ea16.fc34} date Sun Aug 29 08:53:38 2021
; FORMAT={-:-/ absolute / inch / decimal}
; #@! TF.CreationDate,2021-08-29T08:53:38+03:00
; #@! TF.GenerationSoftware,Kicad,Pcbnew,5.99.0-1.20210824gita02ea16.fc34
; #@! TF.FileFunction,Plated,1,2,PTH
FMAT,2
INCH
; #@! TA.AperFunction,Plated,PTH,ViaDrill
T1C0.0157
; #@! TA.AperFunction,Plated,PTH,ComponentDrill
T2C0.0315
; #@! TA.AperFunction,Plated,PTH,ComponentDrill
T3C0.0394
%
G90
G05
T1
X3.3Y-3.85
X3.31Y-3.0
X3.31Y-3.27
X3.31Y-4.57
X3.3196Y-2.43
X3.4Y-2.3
X3.73Y-2.3
X3.73Y-2.45
X3.73Y-3.08
X3.73Y-3.23
X3.73Y-3.86
X3.73Y-4.01
X3.73Y-4.64
X3.73Y-4.79
X3.83Y-3.01
X3.83Y-3.79
X3.83Y-4.57
X3.83Y-5.35
X3.888Y-4.032
X3.89Y-2.23
X3.89Y-3.01
X3.89Y-3.79
X3.89Y-4.57
X3.89Y-5.35
X3.9278Y-4.5078
X3.96Y-2.4806
X3.96Y-3.01
X3.96Y-3.2606
X3.96Y-3.79
X4.0Y-4.5078
X4.01Y-3.1984
X4.01Y-3.2606
X4.01Y-3.86
X4.01Y-3.9784
X4.01Y-4.0406
X4.01Y-4.7584
X4.01Y-4.83
X4.0189Y-3.08
X4.02Y-2.4806
X4.12Y-2.2689
X4.12Y-2.3311
X4.4Y-3.0
X4.4Y-3.78
X4.4Y-4.56
X4.4Y-5.34
X4.5Y-2.3
X4.5Y-2.45
X4.51Y-3.08
X4.51Y-3.23
X4.51Y-3.86
X4.51Y-4.01
X4.51Y-4.64
X4.51Y-4.79
X4.58Y-1.5
X4.61Y-3.01
X4.61Y-3.79
X4.61Y-4.57
X4.61Y-5.35
X4.66Y-2.47
X4.668Y-3.252
X4.67Y-2.23
X4.67Y-3.01
X4.67Y-3.1111
X4.67Y-3.79
X4.67Y-3.93
X4.67Y-4.57
X4.67Y-5.35
X4.73Y-2.4
X4.73Y-2.49
X4.74Y-2.34
X4.8Y-3.1984
X4.8Y-3.2606
X4.8Y-3.9784
X4.8Y-4.0406
X4.8Y-4.7584
X4.8Y-4.8206
X4.858Y-2.388
X4.87Y-2.4806
X4.88Y-3.16
X4.97Y-2.25
X5.0Y-1.66
X5.18Y-1.74
X5.18Y-3.0
X5.18Y-3.78
X5.18Y-4.56
X5.18Y-5.34
X5.24Y-2.39
X5.24Y-3.17
X5.24Y-3.95
X5.28Y-2.3
X5.28Y-2.45
X5.29Y-3.08
X5.29Y-3.23
X5.29Y-3.86
X5.29Y-4.01
X5.29Y-4.64
X5.29Y-4.79
X5.32Y-1.66
X5.32Y-1.8
X5.4045Y-1.7084
T2
X3.64Y-2.08
X4.04Y-2.08
T3
X3.55Y-1.1
X3.55Y-1.9
X3.65Y-1.1
X3.65Y-1.9
X3.75Y-1.1
X3.75Y-1.9
X3.85Y-1.1
X3.85Y-1.9
X3.95Y-1.1
X3.95Y-1.9
X4.05Y-1.1
X4.05Y-1.9
X4.15Y-1.1
X4.15Y-1.9
X4.25Y-1.1
X4.25Y-1.9
X4.35Y-1.1
X4.35Y-1.9
X4.45Y-1.1
X4.45Y-1.9
X4.55Y-1.1
X4.55Y-1.9
X4.65Y-1.1
X4.65Y-1.9
X4.75Y-1.1
X4.85Y-1.1
X4.95Y-1.1
X5.05Y-1.1
T0
M30
